<svg xmlns="http://www.w3.org/2000/svg" xmlns:xlink="http://www.w3.org/1999/xlink" width="141.1" height="94" viewBox="0 0 141.1 94"><style type="text/css">.st0{fill:#4D9280;} .st1{fill:#3E8773;} .st2{fill:#E9B620;} .st3{clip-path:url(#SVGID_2_);fill:url(#SVGID_3_);} .st4{fill:#FFFFFF;} .st5{clip-path:url(#SVGID_5_);fill:url(#SVGID_6_);}</style><path class="st0" d="M136.7 38.1L80 29.4l-15-2.3-25.4-3.9L0 45.4 25.2 94l115.9-6.8z"/><path class="st1" d="M65.2 27.2c-1.6 4.6-3.8 8.9-6.8 12.7 9.5-1.1 17.8-5.3 26-9.8l-4.4-.7-9-1.4-5.8-.8"/><path class="st2" d="M67.4 1.7c-1.6 5-2.5 9.9-3.6 15.3-1.6 7.7-4.3 14.7-9 20.6 14.1-1.6 38-16.3 38-16.3L90 0 67.4 1.7z"/><defs><path id="SVGID_1_" d="M67.4 1.7c-1.6 5-2.5 9.9-3.6 15.3-1.6 7.7-4.3 14.7-9 20.6C67.9 32.2 90 0 90 0L67.4 1.7z"/></defs><clipPath id="SVGID_2_"><use xlink:href="#SVGID_1_" overflow="visible"/></clipPath><linearGradient id="SVGID_3_" gradientUnits="userSpaceOnUse" x1="-342.178" y1="351.184" x2="-341.178" y2="351.184" gradientTransform="matrix(35.172 0 0 -35.172 12090.075 12370.841)"><stop offset="0" stop-color="#EEC55D"/><stop offset=".189" stop-color="#EDC250"/><stop offset=".717" stop-color="#EAB92D"/><stop offset="1" stop-color="#E9B620"/></linearGradient><path class="st3" d="M54.8 0H90v37.6H54.8z"/><path class="st4" d="M39.7 49.8v1-1M56.1 70c-.5.7-1.8 1.6-3.2 1.6-1.3 0-2-.9-2-2.1 0-1.5 1.2-2.3 2.8-2.3 1.3 0 2.1.3 2.4.5V70zm-1.7-8.9c-2.2 0-3.9.7-4 .8-.4.1-.5.3-.4.6l.2.7c.1.3.3.4.6.3.5-.2 1.9-.6 3.5-.6 1.7 0 1.9 1 1.9 3.1 0 0-1.2-.4-2.5-.4-3 0-4.7 1.7-4.7 3.9 0 2.3 1.5 3.8 3.6 3.8 1.8 0 3-.9 3.6-1.5l.2.8c.1.3.2.4.5.4h.6c.3 0 .6-.3.6-.6v-6.5c0-3.2-.8-4.8-3.7-4.8M120.6 61.1c-2.4 0-4.1 1.5-4.1 1.5l-.3-.9c-.1-.2-.2-.4-.5-.4h-.6c-.3 0-.6.3-.6.6v10.5c0 .3.3.6.6.6h.9c.3 0 .6-.3.6-.6v-7.8s1.6-1.7 3.8-1.7c1.6 0 2.6 1.1 2.6 3.3v6.1c0 .3.3.6.6.6h.9c.3 0 .6-.3.6-.6v-6.1c0-2.8-1.1-5.1-4.5-5.1M98.4 70c-.5.7-1.7 1.6-3.2 1.6-1.3 0-2-.9-2-2.1 0-1.5 1.2-2.3 2.8-2.3 1.3 0 2.1.3 2.4.5V70zm-1.8-8.9c-2.2 0-3.9.7-4.1.8-.3.1-.4.3-.3.6l.2.7c.1.3.3.4.6.3.5-.2 1.9-.6 3.5-.6 1.7 0 1.9 1 1.9 3.1 0 0-1.2-.4-2.5-.4-3 0-4.7 1.7-4.7 3.9 0 2.3 1.5 3.8 3.6 3.8 1.8 0 3-.9 3.6-1.5l.2.8c.1.3.2.4.5.4h.6c.3 0 .6-.3.6-.6v-6.5c0-3.2-.7-4.8-3.7-4.8M66.5 61.1c-2.4 0-3.5 1.5-3.5 1.5l-.2-.8c-.1-.3-.3-.4-.5-.4h-.6c-.3 0-.6.3-.6.6v10.5c0 .3.3.6.6.6h.9c.3 0 .6-.3.6-.6v-7.8s1-1.6 3.2-1.6c.4 0 .9.1 1.1.2.3.1.6.1.7-.3l.3-1c.3-.7-1.2-.9-2-.9M90.1 61.4h-.8c-.2 0-.4.1-.5.3L85 70.1l-3.6-8.3c-.1-.2-.3-.3-.5-.3H80c-.4 0-.6.3-.4.7l4.9 11c.1.1.2.3.5.3h.1c.3 0 .4-.1.5-.3l5-11c.1-.5-.1-.8-.5-.8M76.3 70c-.5.7-1.7 1.6-3.2 1.6-1.3 0-2-.9-2-2.1 0-1.5 1.2-2.3 2.8-2.3 1.3 0 2.1.3 2.4.5V70zm-1.8-8.9c-2.2 0-3.9.7-4 .8-.3.1-.4.3-.3.6l.2.7c.1.3.3.4.6.3.5-.2 1.9-.6 3.5-.6 1.7 0 1.9 1 1.9 3.1 0 0-1.2-.4-2.5-.4-3 0-4.7 1.7-4.7 3.9 0 2.3 1.5 3.8 3.6 3.8 1.8 0 3-.9 3.6-1.5l.2.8c.1.3.2.4.5.4h.6c.3 0 .6-.3.6-.6v-6.5c-.1-3.2-.8-4.8-3.8-4.8M109.7 70c-.5.7-1.7 1.6-3.2 1.6-1.3 0-2-.9-2-2.1 0-1.5 1.2-2.3 2.8-2.3 1.3 0 2.1.3 2.4.5V70zm-1.8-8.9c-2.2 0-3.9.7-4 .8-.3.1-.4.3-.3.6l.2.7c.1.3.3.4.6.3.5-.2 1.9-.6 3.5-.6 1.7 0 1.9 1 1.9 3.1 0 0-1.2-.4-2.5-.4-3 0-4.7 1.7-4.7 3.9 0 2.3 1.5 3.8 3.6 3.8 1.8 0 3-.9 3.6-1.5l.2.8c.1.3.2.4.5.4h.6c.3 0 .6-.3.6-.6v-6.5c-.1-3.2-.8-4.8-3.8-4.8M39.7 49.8v-.9c0-3.4-.9-5-2.6-5.6-1.9-.6-5.2-.4-14.7 11.7l-1.6 2 2.8-.5s8.2-11.8 12.5-11.6c1.6.1 3.5 1.4 3.6 4.9"/><path class="st4" d="M41.6 66.6l5.5-4.4c.2-.2.2-.7-.3-.7h-1.6c-.2 0-.5.1-.7.4l-5 4.1V53.2l-2 .9v18.5c0 .3.3.6.6.6h.9c.3 0 .6-.3.6-.6v-5.3l5.9 5.6c.1.1.3.2.6.2h1.6c.5 0 .5-.5.3-.7l-6.4-5.8z"/><defs><path id="SVGID_4_" d="M37.5 50c-4.1 1.8-9.3 3.4-12 4.1l-2.3 2.5c.5-.1 6.5-1.1 14.3-4.4 10.8-4.7 15.4-11.5 15.4-11.5-4.7 3.5-8.6 6.3-15.4 9.3"/></defs><clipPath id="SVGID_5_"><use xlink:href="#SVGID_4_" overflow="visible"/></clipPath><linearGradient id="SVGID_6_" gradientUnits="userSpaceOnUse" x1="-340.964" y1="351.609" x2="-339.964" y2="351.609" gradientTransform="matrix(29.698 0 0 -29.698 10149.075 10490.676)"><stop offset="0" stop-color="#fff"/><stop offset=".264" stop-color="#fff"/><stop offset=".331" stop-color="#F9EDD1"/><stop offset=".626" stop-color="#E9B620"/><stop offset="1" stop-color="#E9B620"/></linearGradient><path class="st5" d="M23.2 40.7h29.7v16H23.2z"/></svg>